<?xml version="1.0" encoding="UTF-8" standalone="no"?>
<!DOCTYPE svg PUBLIC "-//W3C//DTD SVG 1.1//EN"
 "http://www.w3.org/Graphics/SVG/1.1/DTD/svg11.dtd">
<!-- Generated by graphviz version 2.42.4 (0)
 -->
<!-- Title: G Pages: 1 -->
<svg width="1349pt" height="323pt"
 viewBox="0.00 0.00 1349.08 323.08" xmlns="http://www.w3.org/2000/svg" xmlns:xlink="http://www.w3.org/1999/xlink">
<g id="graph0" class="graph" transform="scale(1 1) rotate(0) translate(23.04 300.04)">
<title>G</title>
<text text-anchor="middle" x="651.5" y="-261.8" font-family="DejaVu Sans" font-size="14.00">What happens when a Cell receives a Message?</text>
<g id="clust1" class="cluster">
<title>cluster_cell</title>
<path fill="#f6faff" stroke="#7fa6d8" stroke-width="1.5" d="M176,-77C176,-77 1283,-77 1283,-77 1289,-77 1295,-83 1295,-89 1295,-89 1295,-234 1295,-234 1295,-240 1289,-246 1283,-246 1283,-246 176,-246 176,-246 170,-246 164,-240 164,-234 164,-234 164,-89 164,-89 164,-83 170,-77 176,-77"/>
<text text-anchor="middle" x="729.5" y="-230.8" font-family="DejaVu Sans" font-size="14.00">One Cell</text>
</g>
<!-- incoming -->
<g id="node1" class="node">
<title>incoming</title>
<path fill="#f4f6f8" stroke="#98a2ad" d="M107,-126C107,-126 12,-126 12,-126 6,-126 0,-120 0,-114 0,-114 0,-100 0,-100 0,-94 6,-88 12,-88 12,-88 107,-88 107,-88 113,-88 119,-94 119,-100 119,-100 119,-114 119,-114 119,-120 113,-126 107,-126"/>
<text text-anchor="middle" x="59.5" y="-110.6" font-family="DejaVu Sans" font-size="10.50">Command · Event</text>
<text text-anchor="middle" x="59.5" y="-98.6" font-family="DejaVu Sans" font-size="10.50">Callback · Timer</text>
</g>
<!-- mailbox -->
<g id="node2" class="node">
<title>mailbox</title>
<path fill="#eee8f7" stroke="#8e72b0" d="M385,-126C385,-126 184,-126 184,-126 178,-126 172,-120 172,-114 172,-114 172,-100 172,-100 172,-94 178,-88 184,-88 184,-88 385,-88 385,-88 391,-88 397,-94 397,-100 397,-100 397,-114 397,-114 397,-120 391,-126 385,-126"/>
<text text-anchor="middle" x="284.5" y="-110.6" font-family="DejaVu Sans" font-size="10.50">1 · Mailbox</text>
<text text-anchor="middle" x="284.5" y="-98.6" font-family="DejaVu Sans" font-size="10.50">The Message waits in durable storage</text>
</g>
<!-- incoming&#45;&gt;mailbox -->
<g id="edge5" class="edge">
<title>incoming&#45;&gt;mailbox</title>
<path fill="none" stroke="#6b7785" stroke-width="1.2" d="M119.09,-107C133.06,-107 148.48,-107 164.1,-107"/>
<polygon fill="#6b7785" stroke="#6b7785" stroke-width="1.2" points="164.29,-109.63 171.79,-107 164.29,-104.38 164.29,-109.63"/>
</g>
<!-- handler -->
<g id="node3" class="node">
<title>handler</title>
<path fill="#eaf2ff" stroke="#4472c4" d="M689,-135C689,-135 471,-135 471,-135 465,-135 459,-129 459,-123 459,-123 459,-97 459,-97 459,-91 465,-85 471,-85 471,-85 689,-85 689,-85 695,-85 701,-91 701,-97 701,-97 701,-123 701,-123 701,-129 695,-135 689,-135"/>
<text text-anchor="middle" x="580" y="-119.6" font-family="DejaVu Sans" font-size="10.50">2 · Handler</text>
<text text-anchor="middle" x="580" y="-107.6" font-family="DejaVu Sans" font-size="10.50">One Message at a time</text>
<text text-anchor="middle" x="580" y="-95.6" font-family="DejaVu Sans" font-size="10.50">Read State · apply logic · stage Messages</text>
</g>
<!-- mailbox&#45;&gt;handler -->
<g id="edge1" class="edge">
<title>mailbox&#45;&gt;handler</title>
<path fill="none" stroke="#6b7785" stroke-width="1.2" d="M397.3,-108.14C414.87,-108.32 433.16,-108.51 451.07,-108.69"/>
<polygon fill="#6b7785" stroke="#6b7785" stroke-width="1.2" points="451.19,-111.32 458.72,-108.77 451.24,-106.07 451.19,-111.32"/>
</g>
<!-- rule -->
<g id="node8" class="node">
<title>rule</title>
<path fill="#fff2cc" stroke="#d6a100" d="M698,-50C698,-50 462,-50 462,-50 456,-50 450,-44 450,-38 450,-38 450,-12 450,-12 450,-6 456,0 462,0 462,0 698,0 698,0 704,0 710,-6 710,-12 710,-12 710,-38 710,-38 710,-44 704,-50 698,-50"/>
<text text-anchor="middle" x="580" y="-34.6" font-family="DejaVu Sans" font-size="10.50">Design rules</text>
<text text-anchor="middle" x="580" y="-22.6" font-family="DejaVu Sans" font-size="10.50">Make Handlers safe to run twice.</text>
<text text-anchor="middle" x="580" y="-10.6" font-family="DejaVu Sans" font-size="10.50">Order exists inside one Cell, not across Cells.</text>
</g>
<!-- mailbox&#45;&gt;rule -->
<g id="edge8" class="edge">
<title>mailbox&#45;&gt;rule</title>
<path fill="none" stroke="#d6a100" stroke-width="1.2" stroke-dasharray="1,5" d="M353.57,-87.98C393.96,-76.7 445.64,-62.26 489.32,-50.06"/>
</g>
<!-- commit -->
<g id="node4" class="node">
<title>commit</title>
<path fill="#e2f0d9" stroke="#70ad47" d="M999,-135C999,-135 821,-135 821,-135 815,-135 809,-129 809,-123 809,-123 809,-97 809,-97 809,-91 815,-85 821,-85 821,-85 999,-85 999,-85 1005,-85 1011,-91 1011,-97 1011,-97 1011,-123 1011,-123 1011,-129 1005,-135 999,-135"/>
<text text-anchor="middle" x="910" y="-119.6" font-family="DejaVu Sans" font-size="10.50">3 · Transaction unit</text>
<text text-anchor="middle" x="910" y="-107.6" font-family="DejaVu Sans" font-size="10.50">Consume Message · update State</text>
<text text-anchor="middle" x="910" y="-95.6" font-family="DejaVu Sans" font-size="10.50">write outbound Messages</text>
</g>
<!-- handler&#45;&gt;commit -->
<g id="edge2" class="edge">
<title>handler&#45;&gt;commit</title>
<path fill="none" stroke="#6b7785" stroke-width="1.2" d="M701.27,-110C734.03,-110 769.29,-110 801.3,-110"/>
<polygon fill="#6b7785" stroke="#6b7785" stroke-width="1.2" points="801.43,-112.63 808.93,-110 801.43,-107.38 801.43,-112.63"/>
</g>
<!-- external -->
<g id="node7" class="node">
<title>external</title>
<path fill="#fde9e7" stroke="#c55a11" d="M983,-50C983,-50 837,-50 837,-50 831,-50 825,-44 825,-38 825,-38 825,-12 825,-12 825,-6 831,0 837,0 837,0 983,0 983,0 989,0 995,-6 995,-12 995,-12 995,-38 995,-38 995,-44 989,-50 983,-50"/>
<text text-anchor="middle" x="910" y="-34.6" font-family="DejaVu Sans" font-size="10.50">External effect</text>
<text text-anchor="middle" x="910" y="-22.6" font-family="DejaVu Sans" font-size="10.50">HTTP · MQTT · actuator</text>
<text text-anchor="middle" x="910" y="-10.6" font-family="DejaVu Sans" font-size="10.50">outside the Cell transaction</text>
</g>
<!-- handler&#45;&gt;external -->
<g id="edge7" class="edge">
<title>handler&#45;&gt;external</title>
<path fill="none" stroke="#c55a11" stroke-width="1.2" stroke-dasharray="5,2" d="M677.64,-84.96C721.76,-73.52 773.76,-60.05 817.27,-48.77"/>
<polygon fill="#c55a11" stroke="#c55a11" stroke-width="1.2" points="818.13,-51.26 824.73,-46.84 816.81,-46.18 818.13,-51.26"/>
<text text-anchor="middle" x="759.5" y="-69.8" font-family="DejaVu Sans" font-size="9.00">side effect</text>
</g>
<!-- state -->
<g id="node5" class="node">
<title>state</title>
<path fill="#eee8f7" stroke="#8e72b0" d="M1275,-177C1275,-177 1121,-177 1121,-177 1115,-177 1109,-171 1109,-165 1109,-165 1109,-151 1109,-151 1109,-145 1115,-139 1121,-139 1121,-139 1275,-139 1275,-139 1281,-139 1287,-145 1287,-151 1287,-151 1287,-165 1287,-165 1287,-171 1281,-177 1275,-177"/>
<text text-anchor="middle" x="1198" y="-161.6" font-family="DejaVu Sans" font-size="10.50">Cell State</text>
<text text-anchor="middle" x="1198" y="-149.6" font-family="DejaVu Sans" font-size="10.50">available to the next Handler</text>
</g>
<!-- commit&#45;&gt;state -->
<g id="edge3" class="edge">
<title>commit&#45;&gt;state</title>
<path fill="none" stroke="#6b7785" stroke-width="1.2" d="M1011.03,-126.79C1040.31,-131.7 1072.23,-137.06 1101.24,-141.93"/>
<polygon fill="#6b7785" stroke="#6b7785" stroke-width="1.2" points="1101.11,-144.57 1108.94,-143.22 1101.98,-139.39 1101.11,-144.57"/>
<text text-anchor="middle" x="1060" y="-140.8" font-family="DejaVu Sans" font-size="9.00">new State</text>
</g>
<!-- outbound -->
<g id="node6" class="node">
<title>outbound</title>
<path fill="#eaf2ff" stroke="#4472c4" d="M1266,-69C1266,-69 1130,-69 1130,-69 1124,-69 1118,-63 1118,-57 1118,-57 1118,-31 1118,-31 1118,-25 1124,-19 1130,-19 1130,-19 1266,-19 1266,-19 1272,-19 1278,-25 1278,-31 1278,-31 1278,-57 1278,-57 1278,-63 1272,-69 1266,-69"/>
<text text-anchor="middle" x="1198" y="-53.6" font-family="DejaVu Sans" font-size="10.50">Outbound Message</text>
<text text-anchor="middle" x="1198" y="-41.6" font-family="DejaVu Sans" font-size="10.50">to another Cell&#39;s Mailbox</text>
<text text-anchor="middle" x="1198" y="-29.6" font-family="DejaVu Sans" font-size="10.50">or a callback to the caller</text>
</g>
<!-- commit&#45;&gt;outbound -->
<g id="edge6" class="edge">
<title>commit&#45;&gt;outbound</title>
<path fill="none" stroke="#6b7785" stroke-width="1.2" d="M1011.03,-86.92C1043.39,-79.45 1078.99,-71.23 1110.3,-64.01"/>
<polygon fill="#6b7785" stroke="#6b7785" stroke-width="1.2" points="1111.02,-66.53 1117.74,-62.29 1109.84,-61.42 1111.02,-66.53"/>
<text text-anchor="middle" x="1060" y="-80.8" font-family="DejaVu Sans" font-size="9.00">Messages</text>
</g>
<!-- state&#45;&gt;handler -->
<g id="edge4" class="edge">
<title>state&#45;&gt;handler</title>
<path fill="none" stroke="#8e72b0" stroke-width="1.2" stroke-dasharray="1,5" d="M1108.97,-156.91C1085.58,-156.62 1060.33,-156.3 1037,-156 935.67,-154.7 909.84,-163.1 809,-153 773.36,-149.43 734.97,-143.15 700.04,-136.48"/>
<polygon fill="#8e72b0" stroke="#8e72b0" stroke-width="1.2" points="700.5,-133.9 692.64,-135.05 699.5,-139.05 700.5,-133.9"/>
<text text-anchor="middle" x="910" y="-160.8" font-family="DejaVu Sans" font-size="9.00">read next time</text>
</g>
</g>
</svg>
