<?xml version="1.0" encoding="UTF-8" standalone="no"?>
<!DOCTYPE svg PUBLIC "-//W3C//DTD SVG 1.1//EN"
 "http://www.w3.org/Graphics/SVG/1.1/DTD/svg11.dtd">
<!-- Generated by graphviz version 2.43.0 (0)
 -->
<!-- Title: G Pages: 1 -->
<svg width="1151pt" height="104pt"
 viewBox="0.00 0.00 1151.00 104.00" xmlns="http://www.w3.org/2000/svg" xmlns:xlink="http://www.w3.org/1999/xlink">
<g id="graph0" class="graph" transform="scale(1 1) rotate(0) translate(4 100)">
<title>G</title>
<!-- board -->
<g id="node1" class="node">
<title>board</title>
<path fill="#fff2cc" stroke="#d6a100" stroke-width="1.1" d="M149.5,-96C149.5,-96 28.5,-96 28.5,-96 22.5,-96 16.5,-90 16.5,-84 16.5,-84 16.5,-70 16.5,-70 16.5,-64 22.5,-58 28.5,-58 28.5,-58 149.5,-58 149.5,-58 155.5,-58 161.5,-64 161.5,-70 161.5,-70 161.5,-84 161.5,-84 161.5,-90 155.5,-96 149.5,-96"/>
<text text-anchor="middle" x="89" y="-80.6" font-family="DejaVu Sans" font-size="10.50">Board file</text>
<text text-anchor="middle" x="89" y="-68.6" font-family="DejaVu Sans" font-size="10.50">how this board is wired</text>
</g>
<!-- gen -->
<g id="node3" class="node">
<title>gen</title>
<path fill="#f4f6f8" stroke="#98a2ad" stroke-width="1.1" d="M376,-66C376,-66 286,-66 286,-66 280,-66 274,-60 274,-54 274,-54 274,-42 274,-42 274,-36 280,-30 286,-30 286,-30 376,-30 376,-30 382,-30 388,-36 388,-42 388,-42 388,-54 388,-54 388,-60 382,-66 376,-66"/>
<text text-anchor="middle" x="331" y="-45.6" font-family="DejaVu Sans" font-size="10.50">Code generation</text>
</g>
<!-- board&#45;&gt;gen -->
<g id="edge1" class="edge">
<title>board&#45;&gt;gen</title>
<path fill="none" stroke="#6b7785" stroke-width="1.2" d="M161.68,-68.34C195.07,-64.3 234.45,-59.55 266.72,-55.65"/>
<polygon fill="#6b7785" stroke="#6b7785" stroke-width="1.2" points="267.26,-58.05 273.91,-54.78 266.67,-53.18 267.26,-58.05"/>
<text text-anchor="middle" x="226" y="-65.8" font-family="DejaVu Sans" font-size="9.00" fill="#6b7785">not portable</text>
</g>
<!-- pipe -->
<g id="node2" class="node">
<title>pipe</title>
<path fill="#eaf2ff" stroke="#4472c4" stroke-width="1.1" d="M166,-38C166,-38 12,-38 12,-38 6,-38 0,-32 0,-26 0,-26 0,-12 0,-12 0,-6 6,0 12,0 12,0 166,0 166,0 172,0 178,-6 178,-12 178,-12 178,-26 178,-26 178,-32 172,-38 166,-38"/>
<text text-anchor="middle" x="89" y="-22.6" font-family="DejaVu Sans" font-size="10.50">Pipeline file</text>
<text text-anchor="middle" x="89" y="-10.6" font-family="DejaVu Sans" font-size="10.50">sources · steps · taps · outlets</text>
</g>
<!-- pipe&#45;&gt;gen -->
<g id="edge2" class="edge">
<title>pipe&#45;&gt;gen</title>
<path fill="none" stroke="#6b7785" stroke-width="1.2" d="M178,-29.63C207.36,-33.18 239.46,-37.06 266.57,-40.34"/>
<polygon fill="#6b7785" stroke="#6b7785" stroke-width="1.2" points="266.47,-42.79 273.71,-41.2 267.06,-37.93 266.47,-42.79"/>
<text text-anchor="middle" x="226" y="-40.8" font-family="DejaVu Sans" font-size="9.00" fill="#6b7785">portable</text>
</g>
<!-- tasks -->
<g id="node4" class="node">
<title>tasks</title>
<path fill="#e2f0d9" stroke="#70ad47" stroke-width="1.1" d="M667,-67C667,-67 441,-67 441,-67 435,-67 429,-61 429,-55 429,-55 429,-41 429,-41 429,-35 435,-29 441,-29 441,-29 667,-29 667,-29 673,-29 679,-35 679,-41 679,-41 679,-55 679,-55 679,-61 673,-67 667,-67"/>
<text text-anchor="middle" x="554" y="-51.6" font-family="DejaVu Sans" font-size="10.50">Signal Layer tasks</text>
<text text-anchor="middle" x="554" y="-39.6" font-family="DejaVu Sans" font-size="10.50">read sensors · run steps · apply commands</text>
</g>
<!-- gen&#45;&gt;tasks -->
<g id="edge3" class="edge">
<title>gen&#45;&gt;tasks</title>
<path fill="none" stroke="#6b7785" stroke-width="1.2" d="M388.05,-48C398.54,-48 409.89,-48 421.57,-48"/>
<polygon fill="#6b7785" stroke="#6b7785" stroke-width="1.2" points="421.88,-50.45 428.88,-48 421.88,-45.55 421.88,-50.45"/>
</g>
<!-- io -->
<g id="node5" class="node">
<title>io</title>
<path fill="#eee8f7" stroke="#8e72b0" stroke-width="1.1" d="M818,-67C818,-67 732,-67 732,-67 726,-67 720,-61 720,-55 720,-55 720,-41 720,-41 720,-35 726,-29 732,-29 732,-29 818,-29 818,-29 824,-29 830,-35 830,-41 830,-41 830,-55 830,-55 830,-61 824,-67 818,-67"/>
<text text-anchor="middle" x="775" y="-51.6" font-family="DejaVu Sans" font-size="10.50">Taps and outlets</text>
<text text-anchor="middle" x="775" y="-39.6" font-family="DejaVu Sans" font-size="10.50">named values</text>
</g>
<!-- tasks&#45;&gt;io -->
<g id="edge4" class="edge">
<title>tasks&#45;&gt;io</title>
<path fill="none" stroke="#6b7785" stroke-width="1.2" d="M679.22,-48C690.75,-48 702.06,-48 712.62,-48"/>
<polygon fill="#6b7785" stroke="#6b7785" stroke-width="1.2" points="712.81,-50.45 719.81,-48 712.81,-45.55 712.81,-50.45"/>
</g>
<!-- cell -->
<g id="node6" class="node">
<title>cell</title>
<path fill="#fde9e7" stroke="#c55a11" stroke-width="1.1" d="M1131,-67C1131,-67 937,-67 937,-67 931,-67 925,-61 925,-55 925,-55 925,-41 925,-41 925,-35 931,-29 937,-29 937,-29 1131,-29 1131,-29 1137,-29 1143,-35 1143,-41 1143,-41 1143,-55 1143,-55 1143,-61 1137,-67 1131,-67"/>
<text text-anchor="middle" x="1034" y="-51.6" font-family="DejaVu Sans" font-size="10.50">Cell</text>
<text text-anchor="middle" x="1034" y="-39.6" font-family="DejaVu Sans" font-size="10.50">Wasm sandbox, no bus or pin access</text>
</g>
<!-- io&#45;&gt;cell -->
<g id="edge5" class="edge">
<title>io&#45;&gt;cell</title>
<path fill="none" stroke="#6b7785" stroke-width="1.2" d="M837.44,-48C861.59,-48 890.14,-48 917.85,-48"/>
<polygon fill="#6b7785" stroke="#6b7785" stroke-width="1.2" points="837.19,-45.55 830.19,-48 837.19,-50.45 837.19,-45.55"/>
<polygon fill="#6b7785" stroke="#6b7785" stroke-width="1.2" points="917.88,-50.45 924.88,-48 917.88,-45.55 917.88,-50.45"/>
<text text-anchor="middle" x="877.5" y="-50.8" font-family="DejaVu Sans" font-size="9.00" fill="#6b7785">Myrmic SDK</text>
</g>
</g>
</svg>
